HIERARCHY
ROOT Hips
{
	OFFSET 15.585500 22.159004 44.358299
	CHANNELS 6 Xposition Yposition Zposition Zrotation Xrotation Yrotation
	JOINT Chest
	{
		OFFSET -0.128500 0.160400 6.566002
		CHANNELS 6 Xposition Yposition Zposition Zrotation Xrotation Yrotation
		JOINT Chest2
		{
			OFFSET 0.000000 0.000000 3.554802
			CHANNELS 6 Xposition Yposition Zposition Zrotation Xrotation Yrotation
			JOINT Neck
			{
				OFFSET 0.000000 0.000000 8.267998
				CHANNELS 6 Xposition Yposition Zposition Zrotation Xrotation Yrotation
				JOINT Head
				{
					OFFSET 0.000000 0.000002 2.173897
					CHANNELS 6 Xposition Yposition Zposition Zrotation Xrotation Yrotation
					End Site
					{
						OFFSET 0.000000 0.000000 7.718697
					}
				}
			}
			JOINT LeftCollar
			{
				OFFSET 2.057500 0.117599 5.946301
				CHANNELS 6 Xposition Yposition Zposition Zrotation Xrotation Yrotation
				JOINT LeftShoulder
				{
					OFFSET 4.957699 0.000000 0.000000
					CHANNELS 6 Xposition Yposition Zposition Zrotation Xrotation Yrotation
					JOINT LeftElbow
					{
						OFFSET 0.000000 0.000000 -8.465500
						CHANNELS 6 Xposition Yposition Zposition Zrotation Xrotation Yrotation
						JOINT LeftWrist
						{
							OFFSET 0.000000 -0.000002 -14.594898
							CHANNELS 6 Xposition Yposition Zposition Zrotation Xrotation Yrotation
							End Site
							{
								OFFSET 0.000000 0.000000 -2.173901
							}
						}
					}
				}
			}
			JOINT RightCollar
			{
				OFFSET -3.048500 -0.728800 6.604099
				CHANNELS 6 Xposition Yposition Zposition Zrotation Xrotation Yrotation
				JOINT RightShoulder
				{
					OFFSET -3.710299 0.000000 0.000000
					CHANNELS 6 Xposition Yposition Zposition Zrotation Xrotation Yrotation
					JOINT RightElbow
					{
						OFFSET 0.000000 0.000000 -10.450901
						CHANNELS 6 Xposition Yposition Zposition Zrotation Xrotation Yrotation
						JOINT RightWrist
						{
							OFFSET 0.000000 0.000000 -12.539200
							CHANNELS 6 Xposition Yposition Zposition Zrotation Xrotation Yrotation
							End Site
							{
								OFFSET 0.000000 -0.000002 -2.173901
							}
						}
					}
				}
			}
		}
	}
	JOINT LeftHip
	{
		OFFSET 2.442599 -0.601400 -2.767502
		CHANNELS 6 Xposition Yposition Zposition Zrotation Xrotation Yrotation
		JOINT LeftKnee
		{
			OFFSET 0.000000 -0.000002 -17.033703
			CHANNELS 6 Xposition Yposition Zposition Zrotation Xrotation Yrotation
			JOINT LeftAnkle
			{
				OFFSET 0.000000 -0.000002 -19.318800
				CHANNELS 6 Xposition Yposition Zposition Zrotation Xrotation Yrotation
				End Site
				{
					OFFSET 0.000000 -8.281900 0.000000
				}
			}
		}
	}
	JOINT RightHip
	{
		OFFSET -3.126200 -0.601400 -2.283501
		CHANNELS 6 Xposition Yposition Zposition Zrotation Xrotation Yrotation
		JOINT RightKnee
		{
			OFFSET 0.000000 -0.000002 -16.919401
			CHANNELS 6 Xposition Yposition Zposition Zrotation Xrotation Yrotation
			JOINT RightAnkle
			{
				OFFSET 0.000000 -0.000002 -18.035900
				CHANNELS 6 Xposition Yposition Zposition Zrotation Xrotation Yrotation
				End Site
				{
					OFFSET 0.000000 -9.230099 0.000000
				}
			}
		}
	}
}
MOTION
Frames: 6
Frame Time: 0.041667
27.613705 39.541203 5.589600 -47.586488 -38.118818 1.494927 -0.128503 0.160402 6.566012 51.294215 24.654206 -13.492983 0.000000 -0.000004 3.554807 -24.067620 -4.932172 -5.111614 -0.000002 -0.000012 8.267997 38.209851 24.039314 -29.982714 0.000002 -0.000000 2.173894 1.453232 4.381550 3.509664 2.057505 0.117590 5.946302 -3.914742 -11.182411 23.849038 4.957697 0.000003 0.000006 -4.546923 9.375035 -95.078467 0.000003 -0.000001 -8.465500 926.359433 -153.016305 611.099976 -0.000001 0.000000 -14.594892 -1038.096956 -28.657725 -352.076499 -3.048502 -0.728812 6.604100 51.513416 12.256686 -16.064873 -3.710292 0.000006 0.000003 36.490125 -16.159266 56.899495 0.000003 0.000007 -10.450893 1222.568891 -112.525598 1227.436357 0.000004 0.000012 -12.539198 232.081604 191.063054 -101.139932 2.442593 -0.601395 -2.767497 69.573905 -38.618375 66.319696 -0.000003 -0.000004 -17.033705 -408.474300 44.754565 375.094510 -0.000002 -0.000003 -19.318802 -192.959251 98.746312 544.720700 -3.126206 -0.601401 -2.283496 -85.893973 -49.513838 -50.278208 0.000004 -0.000001 -16.919399 501.648653 33.307469 -176.327863 -0.000004 -0.000001 -18.035896 314.605480 46.076429 -204.287939
27.616005 39.544903 5.585995 -47.521991 -38.159215 1.551597 -0.128501 0.160399 6.566006 51.269224 24.665471 -13.542329 0.000001 -0.000001 3.554803 -24.046984 -4.865118 -5.098739 0.000000 0.000007 8.268002 38.266524 24.314391 -30.036877 0.000001 0.000001 2.173898 1.511715 4.441562 3.460344 2.057508 0.117601 5.946309 -3.847268 -11.376914 23.799536 4.957693 0.000004 0.000003 -4.499444 9.320316 -94.981348 0.000002 -0.000004 -8.465506 926.119556 -153.171582 611.226908 0.000004 -0.000002 -14.594892 -1038.082312 -28.640675 -352.174061 -3.048500 -0.728801 6.604103 50.577394 12.296607 -15.392195 -3.710295 -0.000005 0.000004 37.223636 -15.803610 55.816425 0.000002 0.000010 -10.450901 1223.715598 -112.704849 1228.148554 0.000003 0.000006 -12.539198 231.703840 191.318858 -100.857387 2.442599 -0.601399 -2.767503 69.710427 -38.515570 66.416862 -0.000001 -0.000006 -17.033703 -407.780380 44.960133 374.627898 0.000001 -0.000003 -19.318800 -193.043317 98.482708 543.761414 -3.126201 -0.601404 -2.283503 -86.184857 -49.406778 -50.481307 -0.000001 0.000003 -16.919397 501.708977 33.303678 -176.213157 -0.000004 -0.000003 -18.035898 314.474149 46.135589 -204.188656
27.616905 39.549110 5.583096 -47.455772 -38.221035 1.633625 -0.128493 0.160394 6.566005 51.258435 24.670522 -13.604489 0.000002 0.000005 3.554807 -24.098931 -4.766770 -5.089886 0.000001 0.000001 8.267996 38.557695 24.436953 -30.331385 0.000004 0.000003 2.173890 1.397269 4.447924 3.391404 2.057505 0.117602 5.946307 -3.702448 -11.531190 23.745072 4.957706 0.000001 0.000008 -4.518917 9.383494 -94.886894 0.000003 0.000002 -8.465497 926.052566 -153.476891 611.350070 0.000002 0.000000 -14.594896 -1038.079689 -28.731269 -352.227173 -3.048501 -0.728801 6.604099 50.432478 12.135085 -15.130392 -3.710296 -0.000001 -0.000000 37.279647 -15.488562 55.102917 0.000003 0.000016 -10.450902 1224.530084 -113.068550 1228.374880 0.000004 0.000001 -12.539200 231.827002 191.534992 -100.762468 2.442601 -0.601398 -2.767503 69.843937 -38.408391 66.491489 0.000000 -0.000002 -17.033703 -407.096842 45.176381 374.145550 0.000001 -0.000004 -19.318810 -192.956560 98.101734 542.337620 -3.126194 -0.601403 -2.283501 -86.364259 -49.312484 -50.589719 0.000004 -0.000004 -16.919405 501.693732 33.208322 -176.034233 -0.000003 -0.000003 -18.035896 314.692606 46.075814 -204.281095
27.617500 39.555202 5.576199 -47.427826 -38.288459 1.701897 -0.128497 0.160399 6.566006 51.327816 24.806943 -13.709685 -0.000000 -0.000006 3.554804 -24.074699 -4.768851 -5.107922 -0.000004 0.000003 8.268002 38.670298 24.512693 -30.533684 -0.000001 0.000005 2.173897 1.347375 4.468894 3.298144 2.057506 0.117603 5.946307 -3.726590 -11.648081 23.502930 4.957699 0.000001 0.000007 -4.467818 9.181057 -94.722778 -0.000002 -0.000003 -8.465496 925.988198 -153.884053 611.598798 -0.000002 0.000000 -14.594893 -1038.391802 -28.899323 -352.315883 -3.048505 -0.728798 6.604101 51.268995 12.079832 -15.050429 -3.710297 -0.000009 0.000003 36.268912 -15.435046 54.401569 0.000003 0.000012 -10.450901 1223.393978 -113.528269 1226.935731 0.000010 0.000012 -12.539195 232.926690 191.498751 -100.613686 2.442602 -0.601397 -2.767497 70.122916 -38.221684 66.633775 -0.000001 -0.000001 -17.033705 -406.506495 45.455489 373.672382 -0.000004 -0.000003 -19.318804 -193.058507 97.744529 541.191733 -3.126193 -0.601399 -2.283495 -86.285657 -49.325184 -50.527103 0.000002 0.000001 -16.919401 501.575871 33.140037 -175.920879 -0.000003 -0.000004 -18.035896 314.956552 46.007454 -204.302993
27.618401 39.571609 5.560402 -47.427259 -38.370558 1.749768 -0.128495 0.160399 6.566001 51.407736 24.893606 -13.820854 0.000001 -0.000001 3.554801 -24.003378 -4.701925 -5.082191 0.000001 0.000004 8.268003 38.662566 24.600057 -30.657608 -0.000001 0.000006 2.173897 1.321905 4.481778 3.260834 2.057506 0.117604 5.946310 -3.735442 -11.704720 23.281373 4.957697 0.000014 0.000008 -4.486115 9.148307 -94.584384 0.000006 0.000003 -8.465502 926.158352 -154.210126 611.852608 0.000003 -0.000003 -14.594894 -1038.675610 -29.076160 -352.447378 -3.048501 -0.728799 6.604107 51.357555 12.171073 -14.695890 -3.710302 0.000004 0.000006 35.965222 -15.578886 53.644801 0.000002 0.000011 -10.450902 1224.648765 -113.525892 1227.649677 0.000004 0.000007 -12.539198 232.873988 191.498560 -100.388099 2.442600 -0.601396 -2.767502 70.699712 -37.804588 66.883459 -0.000004 0.000002 -17.033701 -406.787188 45.824473 373.650881 0.000000 -0.000003 -19.318802 -191.377693 97.219109 537.675879 -3.126196 -0.601403 -2.283504 -85.900352 -49.462625 -50.264001 0.000002 0.000003 -16.919401 501.304521 33.143370 -175.872440 -0.000003 -0.000005 -18.035898 315.165719 45.928822 -204.306299
27.617802 39.588203 5.546703 -47.437245 -38.436681 1.782196 -0.128500 0.160399 6.566002 51.485986 24.979829 -13.900511 0.000000 -0.000002 3.554805 -23.886047 -4.686908 -5.050270 -0.000002 0.000002 8.267998 38.656453 24.680938 -30.870420 0.000006 -0.000000 2.173897 1.300298 4.477510 3.250237 2.057508 0.117605 5.946301 -3.816279 -11.673259 23.146674 4.957702 0.000002 0.000006 -4.502419 9.138408 -94.542529 0.000000 0.000000 -8.465501 926.446968 -154.579776 612.082539 0.000002 0.000002 -14.594895 -1038.950894 -28.998350 -352.317823 -3.048506 -0.728792 6.604100 51.508260 12.209909 -14.764917 -3.710293 0.000003 0.000007 35.622613 -15.389603 53.231411 0.000003 0.000005 -10.450901 1224.582321 -113.836420 1227.114737 0.000004 0.000010 -12.539200 233.447096 191.663714 -100.525679 2.442595 -0.601400 -2.767503 71.257868 -37.399978 67.114552 -0.000005 0.000002 -17.033701 -407.121021 46.143522 373.682491 -0.000001 -0.000003 -19.318802 -189.497315 96.845601 534.060797 -3.126202 -0.601404 -2.283503 -85.420265 -49.649731 -49.946247 0.000000 0.000000 -16.919405 501.177479 33.283652 -176.033550 -0.000003 -0.000005 -18.035898 315.185062 45.979713 -204.370339
